<svg width="20" height="20" viewBox="0 0 20 20" fill="none" xmlns="http://www.w3.org/2000/svg">
<g clip-path="url(#clip0_220_13)">
<path d="M18 16C18 17.0909 17.1818 17.9091 16.0909 17.9091H3.90909C2.81818 17.9091 2 17.0909 2 16V7.81818H5C4.72727 8.54546 4.63636 9.27273 4.63636 10C4.63636 13 7.09091 15.4545 10.0909 15.4545C13.0909 15.4545 15.5455 13 15.5455 10C15.5455 9.27273 15.3636 8.54545 15.1818 7.90909H18.1818L18 16ZM7.18182 7.90909C7.81818 7 8.81818 6.45455 10 6.45455C11.1818 6.45455 12.1818 7 12.8182 7.90909C13.2727 8.45455 13.4545 9.18182 13.4545 10C13.4545 11.9091 11.9091 13.5455 9.90909 13.5455C7.90909 13.5455 6.36364 11.9091 6.36364 10C6.45455 9.27273 6.72727 8.54545 7.18182 7.90909ZM17.1818 2.27273H17.6364V2.72727V5.63636H14.2727V2.27273H17.1818ZM16 0H3.81818C1.72727 0 0 1.72727 0 3.90909V8V16.1818C0 18.1818 1.72727 20 3.90909 20H16.0909C18.1818 20 20 18.2727 20 16.0909V7.90909V3.90909C19.9091 1.72727 18.1818 0 16 0Z" fill="black"/>
</g>
<defs>
<clipPath id="clip0_220_13">
<rect width="20" height="20" fill="white"/>
</clipPath>
</defs>
</svg>
