<svg width="20" height="20" viewBox="0 0 20 20" fill="none" xmlns="http://www.w3.org/2000/svg">
<g clip-path="url(#clip0_220_3)">
<path d="M20 20H15.8667V13.4667C15.8667 11.8667 15.8667 9.86667 13.7333 9.86667C11.6 9.86667 11.2 11.6 11.2 13.3333V20H7.06667V6.66667H11.0667V8.53333C11.6 7.46667 12.9333 6.4 14.9333 6.4C19.0667 6.4 19.8667 9.2 19.8667 12.8V20H20ZM2.4 4.8C1.06667 4.8 0 3.73333 0 2.4C0 1.06667 1.06667 0 2.4 0C3.73333 0 4.8 1.06667 4.8 2.4C4.8 3.73333 3.73333 4.8 2.4 4.8ZM0.266667 20H4.4V6.66667H0.266667V20Z" fill="black"/>
</g>
<defs>
<clipPath id="clip0_220_3">
<rect width="20" height="20" fill="white"/>
</clipPath>
</defs>
</svg>
