<svg width="20" height="20" viewBox="0 0 20 20" fill="none" xmlns="http://www.w3.org/2000/svg">
<g clip-path="url(#clip0_220_16)">
<path d="M19.4 1.80002C18.6 2.30002 17.7 2.60002 16.8 2.80002C16.1 2.00002 15 1.40002 13.8 1.40002C11.5 1.40002 9.69999 3.30002 9.69999 5.70002C9.69999 6.00002 9.69999 6.40002 9.79999 6.70002C6.39999 6.60002 3.39999 4.90002 1.39999 2.30002C0.999994 2.90002 0.799994 3.70002 0.799994 4.40002C0.799994 5.90002 1.49999 7.20002 2.59999 8.00002C1.99999 8.00002 1.39999 7.80002 0.799994 7.50002V7.60002C0.799994 9.70002 2.19999 11.4 4.09999 11.8C3.79999 11.9 3.39999 11.9 2.99999 11.9C2.69999 11.9 2.49999 11.9 2.19999 11.8C2.69999 13.5 4.19999 14.7 5.99999 14.8C4.59999 16 2.79999 16.6 0.899994 16.6C0.599994 16.6 0.199994 16.6 -0.100006 16.5C1.69999 17.7 3.89999 18.4 6.19999 18.4C13.8 18.5 18 12 18 6.30002C18 6.10002 18 5.90002 18 5.70002C18.8 5.10002 19.5 4.30002 20 3.50002C19.3 3.80002 18.5 4.10002 17.6 4.20002C18.5 3.70002 19.1 2.80002 19.4 1.80002Z" fill="black"/>
</g>
<defs>
<clipPath id="clip0_220_16">
<rect width="20" height="20" fill="white"/>
</clipPath>
</defs>
</svg>
