<svg width="23" height="20" viewBox="0 0 23 20" fill="none" xmlns="http://www.w3.org/2000/svg">
<path d="M9.1 12.9V6.5L15.3 9.7L9.1 12.9ZM22.8 5.5C22.8 5.5 22.6 3.9 21.9 3.2C21 2.3 20 2.3 19.6 2.2C16.4 2 11.6 2 11.6 2C11.6 2 6.8 2 3.6 2.2C3 2.3 2 2.3 1.1 3.2C0.5 3.9 0.2 5.5 0.2 5.5C0.2 5.5 0 7.3 0 9.1V10.8C0 12.6 0.2 14.5 0.2 14.5C0.2 14.5 0.4 16.1 1.1 16.8C2 17.7 3.1 17.7 3.6 17.8C5.4 18 11.4 18 11.4 18C11.4 18 16.2 18 19.4 17.8C19.8 17.7 20.8 17.7 21.7 16.8C22.4 16.1 22.6 14.5 22.6 14.5C22.6 14.5 22.8 12.7 22.8 10.8V9.1C23 7.3 22.8 5.5 22.8 5.5Z" fill="black"/>
</svg>
